<?xml version="1.0" encoding="UTF-8" standalone="no"?><!DOCTYPE svg PUBLIC "-//W3C//DTD SVG 1.1//EN" "http://www.w3.org/Graphics/SVG/1.1/DTD/svg11.dtd"><svg width="100%" height="100%" viewBox="0 0 128 128" version="1.1" xmlns="http://www.w3.org/2000/svg" xmlns:xlink="http://www.w3.org/1999/xlink" xml:space="preserve" xmlns:serif="http://www.serif.com/" style="fill-rule:evenodd;clip-rule:evenodd;stroke-linejoin:round;stroke-miterlimit:2;"><rect id="Plan-de-travail1" serif:id="Plan de travail1" x="0" y="0" width="128" height="128" style="fill:none;"/><g id="Plan-de-travail11" serif:id="Plan de travail1"><path d="M63.25,66.992c0.054,0.054 0.056,0.056 0.056,0.134c0.032,3.337 -2.599,6.254 -6.378,6.313c-6.762,0.106 -12.984,-5.16 -13.047,-12.819c-0.086,-10.484 8.533,-19.469 19.879,-19.528c14.652,-0.077 26.855,11.472 26.963,26.596c0.128,18.078 -14.698,33.849 -34.691,33.871c-22.452,0.024 -41.795,-17.919 -41.785,-41.816c0.011,-26.543 22.064,-49.344 51.172,-48.983c30.001,0.373 55.496,24.14 56.331,55.513c0.024,0.904 -0.172,1.866 -0.204,2.025c-0.593,2.913 -2.408,4.729 -2.733,5.054c-0.326,0.325 -2.141,2.141 -5.054,2.733c-2.009,0.409 -3.699,0.065 -4.013,0c-2.907,-0.592 -4.723,-2.408 -5.048,-2.733c-0.325,-0.325 -2.14,-2.141 -2.739,-5.054c-0.351,-1.708 -0.18,-1.724 -0.184,-3.468c-0.045,-21.379 -18.197,-38.496 -39.901,-38.444c-19.943,0.047 -35.834,16.235 -35.877,35.587c-0.037,16.742 13.802,30.842 31.612,31.158c14.75,0.261 27.259,-11.59 27.459,-26.499c0.164,-12.296 -10.171,-22.021 -22.252,-22.103c-9.662,-0.066 -17.113,7.808 -17.161,16.751c-0.034,6.24 5.123,11.355 11.512,11.493c3.093,0.067 5.844,-2.333 6.022,-5.572c0.003,-0.051 -0.008,-0.105 0.006,-0.154c0.008,-0.025 0.037,-0.073 0.055,-0.055Z"/><path d="M96.574,71.322c-1.737,19.678 -18.4,36.213 -40.536,36.237c-25.677,0.028 -47.802,-20.488 -47.791,-47.818c0.012,-29.742 24.631,-55.385 57.246,-54.98c33.157,0.411 61.332,26.679 62.255,61.352c0.04,1.509 -0.268,3.115 -0.323,3.382c-0.949,4.666 -3.849,7.579 -4.37,8.1c-0.521,0.52 -3.433,3.42 -8.1,4.37c-3.207,0.653 -5.906,0.102 -6.408,-0.001c-4.657,-0.949 -7.571,-3.849 -8.091,-4.369c-0.449,-0.449 -2.667,-2.676 -3.882,-6.273Zm-27.393,-3.918c0.008,-0.158 0.009,-0.317 0.003,-0.478l-0.003,0.478Zm-5.931,-0.412c-0.018,-0.018 -0.047,0.03 -0.055,0.055c-0.014,0.049 -0.003,0.103 -0.006,0.154c-0.178,3.239 -2.929,5.639 -6.022,5.572c-6.389,-0.138 -11.546,-5.253 -11.512,-11.493c0.048,-8.943 7.499,-16.817 17.161,-16.751c12.081,0.082 22.416,9.807 22.252,22.103c-0.2,14.909 -12.709,26.76 -27.459,26.499c-17.81,-0.316 -31.649,-14.416 -31.612,-31.158c0.043,-19.352 15.934,-35.54 35.877,-35.587c21.704,-0.052 39.856,17.065 39.901,38.444c0.004,1.744 -0.167,1.76 0.184,3.468c0.599,2.913 2.414,4.729 2.739,5.054c0.325,0.325 2.141,2.141 5.048,2.733c0.314,0.065 2.004,0.409 4.013,0c2.913,-0.592 4.728,-2.408 5.054,-2.733c0.325,-0.325 2.14,-2.141 2.733,-5.054c0.032,-0.159 0.228,-1.121 0.204,-2.025c-0.835,-31.373 -26.33,-55.14 -56.331,-55.513c-29.108,-0.361 -51.161,22.44 -51.172,48.983c-0.01,23.897 19.333,41.84 41.785,41.816c19.993,-0.022 34.819,-15.793 34.691,-33.871c-0.108,-15.124 -12.311,-26.673 -26.963,-26.596c-11.346,0.059 -19.965,9.044 -19.879,19.528c0.063,7.659 6.285,12.925 13.047,12.819c3.779,-0.059 6.41,-2.976 6.378,-6.313c-0,-0.078 -0.002,-0.08 -0.056,-0.134Zm-5.986,-0.212c-0.037,0.013 -0.064,0.05 -0.066,0.092c-0.009,0.164 -0.011,0.329 -0.006,0.495l0.072,-0.587Zm11.786,1.577c0.055,-0.242 0.093,-0.487 0.115,-0.735l-0.115,0.735Zm25.205,-13.095c-4.329,-13.348 -17.38,-22.912 -32.367,-22.876c-16.602,0.039 -29.855,13.491 -29.891,29.601c-0.03,13.567 11.286,24.889 25.719,25.145c11.463,0.202 21.197,-8.994 21.352,-20.581c0.12,-8.958 -7.491,-15.963 -16.293,-16.023c-6.241,-0.042 -11.089,5.008 -11.12,10.784c-0.016,3.002 2.539,5.38 5.609,5.462l0.172,-1.411l0.513,-1.233l0.908,-1.248l1.27,-1.025l1.808,-0.726l1.401,-0.142l1.585,0.238l1.465,0.649l1.107,0.874l1.327,1.952l0.486,2.368c0.061,6.482 -4.944,12.253 -12.284,12.368c-9.91,0.156 -19.049,-7.543 -19.141,-18.768c-0.112,-13.681 11.042,-25.5 25.847,-25.578c13.648,-0.072 25.558,8.101 30.527,20.17Z" style="fill:#fff;"/></g></svg>